<svg width="22" height="22" viewBox="0 0 22 22" fill="none" xmlns="http://www.w3.org/2000/svg">
<path d="M11.0001 3.66669C11.9725 3.66669 12.9052 4.053 13.5928 4.74063C14.2804 5.42826 14.6667 6.36089 14.6667 7.33335C14.6667 8.30581 14.2804 9.23844 13.5928 9.92608C12.9052 10.6137 11.9725 11 11.0001 11C10.0276 11 9.09499 10.6137 8.40736 9.92608C7.71972 9.23844 7.33341 8.30581 7.33341 7.33335C7.33341 6.36089 7.71972 5.42826 8.40736 4.74063C9.09499 4.053 10.0276 3.66669 11.0001 3.66669ZM11.0001 12.8334C15.0517 12.8334 18.3334 14.4742 18.3334 16.5V18.3334H3.66675V16.5C3.66675 14.4742 6.94841 12.8334 11.0001 12.8334Z" fill="#5DA62B"/>
</svg>
