<svg width="47" height="88" viewBox="0 0 47 88" fill="none" xmlns="http://www.w3.org/2000/svg">
<path d="M40.415 1.50501L1.54998 41.375C0.867381 42.0753 0.485352 43.0146 0.485352 43.9925C0.485352 44.9705 0.867381 45.9097 1.54998 46.61L40.415 86.495C40.733 86.8216 41.1131 87.0811 41.5331 87.2584C41.953 87.4356 42.4042 87.5269 42.86 87.5269C43.3158 87.5269 43.767 87.4356 44.1869 87.2584C44.6068 87.0811 44.987 86.8216 45.305 86.495C45.9591 85.8253 46.3254 84.9262 46.3254 83.99C46.3254 83.0538 45.9591 82.1547 45.305 81.485L8.75748 43.9925L45.305 6.50751C45.9569 5.83812 46.3217 4.94065 46.3217 4.00626C46.3217 3.07187 45.9569 2.1744 45.305 1.50501C44.987 1.17843 44.6068 0.918867 44.1869 0.741632C43.767 0.564396 43.3158 0.473083 42.86 0.473083C42.4042 0.473083 41.953 0.564396 41.5331 0.741632C41.1131 0.918867 40.733 1.17843 40.415 1.50501V1.50501Z" fill="white"/>
</svg>
