<svg width="22" height="22" viewBox="0 0 22 22" fill="none" xmlns="http://www.w3.org/2000/svg">
<path d="M11.0001 1.83331C8.47283 1.83331 6.41675 3.8894 6.41675 6.41665V9.16665H5.50008C5.01385 9.16665 4.54754 9.3598 4.20372 9.70362C3.8599 10.0474 3.66675 10.5137 3.66675 11V18.3333C3.66675 18.8195 3.8599 19.2859 4.20372 19.6297C4.54754 19.9735 5.01385 20.1666 5.50008 20.1666H16.5001C16.9863 20.1666 17.4526 19.9735 17.7964 19.6297C18.1403 19.2859 18.3334 18.8195 18.3334 18.3333V11C18.3334 10.5137 18.1403 10.0474 17.7964 9.70362C17.4526 9.3598 16.9863 9.16665 16.5001 9.16665H15.5834V6.41665C15.5834 3.8894 13.5273 1.83331 11.0001 1.83331ZM8.25008 6.41665C8.25008 4.90048 9.48391 3.66665 11.0001 3.66665C12.5162 3.66665 13.7501 4.90048 13.7501 6.41665V9.16665H8.25008V6.41665ZM11.9167 16.2461V18.3333H10.0834V16.2461C9.76293 16.0625 9.5056 15.7862 9.34534 15.4535C9.18508 15.1207 9.12943 14.7473 9.18571 14.3823C9.24199 14.0173 9.40757 13.6779 9.66062 13.4089C9.91366 13.1399 10.2423 12.9539 10.6032 12.8755C10.8712 12.8162 11.1491 12.8179 11.4165 12.8803C11.6838 12.9428 11.9337 13.0644 12.1477 13.2363C12.3618 13.4082 12.5345 13.626 12.6532 13.8735C12.7718 14.1211 12.8334 14.3921 12.8334 14.6666C12.8329 14.9872 12.7479 15.302 12.5869 15.5793C12.426 15.8566 12.1949 16.0866 11.9167 16.2461Z" fill="#5DA62B"/>
</svg>
