<svg width="70" height="70" viewBox="0 0 70 70" fill="none" xmlns="http://www.w3.org/2000/svg">
<path d="M23.157 62.8426C22.3368 62.0222 21.876 60.9096 21.876 59.7495C21.876 58.5894 22.3368 57.4768 23.157 56.6563L44.8132 35.0001L23.157 13.3438C22.36 12.5187 21.9191 11.4136 21.929 10.2665C21.939 9.11935 22.3991 8.02204 23.2103 7.21088C24.0214 6.39972 25.1187 5.93961 26.2658 5.92964C27.413 5.91968 28.5181 6.36065 29.3432 7.15759L54.0926 31.907C54.9128 32.7274 55.3735 33.84 55.3735 35.0001C55.3735 36.1602 54.9128 37.2728 54.0926 38.0932L29.3432 62.8426C28.5228 63.6628 27.4102 64.1235 26.2501 64.1235C25.09 64.1235 23.9774 63.6628 23.157 62.8426V62.8426Z" fill="#5DA62B"/>
</svg>
