<svg width="70" height="70" viewBox="0 0 70 70" fill="none" xmlns="http://www.w3.org/2000/svg">
<path d="M46.843 7.1574C47.6632 7.97783 48.124 9.09043 48.124 10.2505C48.124 11.4106 47.6632 12.5232 46.843 13.3436L25.1868 34.9999L46.843 56.6562C47.64 57.4813 48.081 58.5864 48.071 59.7335C48.061 60.8806 47.6009 61.9779 46.7897 62.7891C45.9786 63.6003 44.8813 64.0604 43.7342 64.0703C42.5871 64.0803 41.4819 63.6393 40.6568 62.8424L15.9074 38.093C15.0872 37.2726 14.6265 36.16 14.6265 34.9999C14.6265 33.8398 15.0872 32.7272 15.9074 31.9068L40.6568 7.1574C41.4772 6.33722 42.5898 5.87646 43.7499 5.87646C44.91 5.87646 46.0226 6.33721 46.843 7.1574V7.1574Z" fill="#5DA62B"/>
</svg>
