<svg width="47" height="88" viewBox="0 0 47 88" fill="none" xmlns="http://www.w3.org/2000/svg">
<path d="M6.58502 1.50501L45.45 41.375C46.1326 42.0753 46.5146 43.0146 46.5146 43.9925C46.5146 44.9705 46.1326 45.9097 45.45 46.61L6.58502 86.495C6.26705 86.8216 5.88688 87.0811 5.46694 87.2584C5.04701 87.4356 4.59583 87.5269 4.14002 87.5269C3.68422 87.5269 3.23303 87.4356 2.81309 87.2584C2.39316 87.0811 2.01299 86.8216 1.69502 86.495C1.04085 85.8253 0.674623 84.9262 0.674623 83.99C0.674623 83.0538 1.04085 82.1547 1.69502 81.485L38.2425 43.9925L1.69502 6.50751C1.0431 5.83812 0.678285 4.94065 0.678285 4.00626C0.678285 3.07187 1.0431 2.1744 1.69502 1.50501C2.01299 1.17843 2.39316 0.918867 2.81309 0.741632C3.23303 0.564396 3.68422 0.473083 4.14002 0.473083C4.59583 0.473083 5.04701 0.564396 5.46694 0.741632C5.88688 0.918867 6.26705 1.17843 6.58502 1.50501V1.50501Z" fill="white"/>
</svg>
